Simulation
nRows=16
nColumns=15
endheader
time  TH_x TH_y TH_z SC_y  SC_z  SC_x  AC_y  AC_z  AC_x  GH_y  GH_z  GH_yy  EL_x  PS_y
1.55  0.000000  0.000000  0.000000  -32.30071782167943  8.22577612243623  26.81464693382667  49.69344747927351  4.824268720265141  -6.5182984193618125  24.113353010109577  55.94513677631548  -18.543113207220678  17.93916930176782  0.000000
1.581  0.000000  0.000000  0.000000  -32.642145222652154  8.48808275639176  27.365734202253922  49.662079001051154  4.924323562951717  -6.26281443218406  23.938131046521526  56.502086689934366  -18.56121542924372  17.91462936942035  0.000000
1.612  0.000000  0.000000  0.000000  -32.95910543951983  8.710947916769403  27.819691848342107  49.65398953955783  5.016955272826934  -6.004828325444461  23.75769754529708  57.003779279642515  -18.551975906316834  17.900073695831853  0.000000
1.643  0.000000  0.000000  0.000000  -33.24669675678291  8.889903496047282  28.17703810272165  49.66979979813585  5.104827310879651  -5.755476358416502  23.57983829460372  57.437409493973085  -18.527751063662702  17.900064610097623  0.000000
1.674  0.000000  0.000000  0.000000  -33.50309578250341  9.026966279491926  28.445116904138807  49.7023769333316  5.189094075736173  -5.526271576952474  23.423961362089663  57.78188046404441  -18.50308956758249  17.914481473559118  0.000000
1.705  0.000000  0.000000  0.000000  -33.72944117719042  9.127794627313602  28.637555936827667  49.741305418963016  5.267818008233323  -5.328652625404679  23.312211935995865  58.01432665084505  -18.48690198322367  17.93925106601691  0.000000
1.736  0.000000  0.000000  0.000000  -33.922238400849125  9.197996518244034  28.765118757460993  49.776242898321314  5.335568784577443  -5.174356691097609  23.26166545730249  58.11743653021378  -18.48354415307688  17.969118037150498  0.000000
1.767  0.000000  0.000000  0.000000  -34.07373849315394  9.240930981656145  28.835012418629244  49.7996744302938  5.384440387224385  -5.075095364576428  23.27958278971999  58.08337619032072  -18.49445310012814  17.99941396774722  0.000000
1.798  0.000000  0.000000  0.000000  -34.169864098918175  9.256521815250093  28.846524664506575  49.80745585789781  5.406112586078415  -5.0413117701405605  23.364545201744235  57.91355319856243  -18.52251208334817  18.026737115199023  0.000000
1.829  0.000000  0.000000  0.000000  -34.19882643211193  9.242925914578532  28.796499944938184  49.800272086045034  5.39359159600276  -5.079021031562092  23.509848265129037  57.61449808257209  -18.57440947205054  18.048884061662033  0.000000
1.8599999999999999  0.000000  0.000000  0.000000  -34.153222000658346  9.195346540364342  28.679489103512847  49.784880585221416  5.3431540942174305  -5.187892984025462  23.706260157634215  57.19367515995624  -18.66377070687383  18.06472737024483  0.000000
1.891  0.000000  0.000000  0.000000  -34.035281438012746  9.10740192651315  28.49175393415616  49.7737105098247  5.255196956881667  -5.360332465060695  23.942734554953756  56.65783488895633  -18.807571294166472  18.07402532107517  0.000000
1.922  0.000000  0.000000  0.000000  -33.85212583433683  8.972444054397432  28.227327765612614  49.780586367538966  5.133132652113467  -5.583401925559874  24.208026443259737  56.01439315810397  -19.019554950714152  18.077559825126166  0.000000
1.953  0.000000  0.000000  0.000000  -33.61652510870751  8.788263151753183  27.880771350686395  49.814000063972735  4.980986155629588  -5.842399731977363  24.492593392243936  55.272520150839604  -19.298981333652335  18.079704946032475  0.000000
1.984  0.000000  0.000000  0.000000  -33.33950940707245  8.55635048232069  27.445517492714938  49.87206875027535  4.802778940911386  -6.125642896558635  24.789264154352534  54.443129943877906  -19.62877033413513  18.088239682722683  0.000000
2.015  0.000000  0.000000  0.000000  -33.03300642042622  8.280982190151926  26.917326989302836  49.94529722514697  4.603130737510291  -6.422952219866071  25.093480528589815  53.53857330302407  -19.97858434542717  18.112525665921435  0.000000
